<svg width="18" height="17" viewBox="0 0 18 17" fill="none" xmlns="http://www.w3.org/2000/svg">
<path d="M16.5 7.375V8.5C16.5 12.0355 16.5 13.8032 15.4012 14.9012C14.304 16 12.5355 16 9 16C5.4645 16 3.69675 16 2.598 14.9012C1.5 13.804 1.5 12.0355 1.5 8.5C1.5 4.9645 1.5 3.19675 2.598 2.098C3.6975 1 5.4645 1 9 1H10.125" stroke="#192E58" stroke-width="1.5" stroke-linecap="round"/>
<path d="M12.489 2.09134L12.9758 1.60459C13.363 1.21741 13.8883 0.99993 14.4359 1C14.9835 1.00007 15.5087 1.21768 15.8959 1.60497C16.2831 1.99225 16.5006 2.51748 16.5005 3.06511C16.5004 3.61274 16.2828 4.13791 15.8955 4.52509L15.408 5.01184C15.408 5.01184 14.3745 4.95109 13.4625 4.03834C12.5498 3.12634 12.489 2.09209 12.489 2.09209L8.01527 6.56509C7.71227 6.86809 7.56077 7.01959 7.43027 7.18684C7.27627 7.38434 7.14527 7.59634 7.03727 7.82284C6.94652 8.01409 6.87902 8.21734 6.74327 8.62384L6.30902 9.92509M6.30902 9.92509L6.02852 10.7666C5.99553 10.8647 5.99057 10.9701 6.0142 11.0709C6.03784 11.1717 6.08912 11.264 6.1623 11.3372C6.23547 11.4105 6.32763 11.4618 6.42841 11.4856C6.52919 11.5093 6.63459 11.5045 6.73277 11.4716L7.57502 11.1911M6.30902 9.92509L7.57502 11.1911M15.4088 5.01109L10.935 9.48484C10.632 9.78784 10.4805 9.93934 10.3133 10.0698C10.1161 10.2235 9.90288 10.3553 9.67727 10.4628C9.48602 10.5536 9.28277 10.6211 8.87627 10.7568L7.57502 11.1911" stroke="#192E58" stroke-width="1.5"/>
</svg>
