<svg width="26" height="26" viewBox="0 0 26 26" fill="none" xmlns="http://www.w3.org/2000/svg">
<path d="M12.9999 12.9998C14.9881 12.9998 16.5999 11.388 16.5999 9.3998C16.5999 7.41158 14.9881 5.7998 12.9999 5.7998C11.0117 5.7998 9.3999 7.41158 9.3999 9.3998C9.3999 11.388 11.0117 12.9998 12.9999 12.9998Z" stroke="black" stroke-width="1.5"/>
<path d="M13 25C19.6274 25 25 19.6274 25 13C25 6.37258 19.6274 1 13 1C6.37258 1 1 6.37258 1 13C1 19.6274 6.37258 25 13 25Z" stroke="black" stroke-width="1.5"/>
<path d="M20.1639 22.5996C19.9719 19.1292 18.9099 16.5996 12.9999 16.5996C7.08994 16.5996 6.02794 19.1292 5.83594 22.5996" stroke="black" stroke-width="1.5" stroke-linecap="round"/>
</svg>
